<svg id="layer-1" data-name="Layer 1" xmlns="http://www.w3.org/2000/svg" viewBox="0 0 472.23 537.96">
  <defs>
    <style>
      .cls-1 {
        fill: #fff;
      }
    </style>
  </defs>
  <title>arte</title>
  <path class="cls-1" d="M451.2,644.85l-1.8-.22a64.55,64.55,0,0,1-.66-8.27c0.52-11.64,1.27-23.27,1.86-34.91,0.59-11.8,1.57-23.62,1.33-35.4-0.08-4-2.53-8.67-5.33-11.71-3.89-4.22-11.38-2.64-13.81,1.94-2.2,4.15-.41,7.71,5,10,7.29,3,8.62,5.11,7.63,12.94-0.92,7.26-2,14.51-3.14,21.73-2.74,17.08-7,34-5.67,51.5a48.65,48.65,0,0,0,3.21,14.47c0.9,2.22,4.38,4.7,6.67,4.67s5.05-2.73,6.38-5c1.72-2.93,2.26-6.57,3.21-9.93,4-14.26,7.29-28.77,12.15-42.74,6.17-17.74,13.48-35.09,20.63-52.47,1.48-3.6,4.45-6.59,6.73-9.87l1.91,0.66c0.29,3.37.8,6.73,0.83,10.1,0.15,20.16-.15,40.36,3.87,60.24a49.62,49.62,0,0,0,5.5,15.32c3.46,5.84,10.19,5.52,13.91-.21a65.22,65.22,0,0,0,5.16-10.77c5.83-14.16,11.43-28.42,17.37-42.53,1.61-3.82,4.09-7.28,6.17-10.9a19.88,19.88,0,0,1,1,7.37c0,14.49-.66,29,0.4,43.45a103.32,103.32,0,0,0,6.34,28.49c3.48,9.21,12.55,10.55,20,4,3.05-2.72,5.44-6.26,7.79-9.66a93.23,93.23,0,0,0,4.81-8.83c0.83,2.92,1.37,5.36,2.2,7.7,4.72,13.27,17.48,18.44,29.28,10.86,6.29-4,11.22-10.21,16.72-15.48a37.34,37.34,0,0,0,2.88-3.61c2.43,10.19,6.39,18.35,17,20.26,11.33,2,19.87-3.27,26.14-12,3.63-5.07,7.14-10.81,8.51-16.75,1.58-6.87,6-8.11,11.38-9.59,0,3.81-.36,7.35.08,10.78,0.8,6.21,1.14,12.73,3.37,18.45,3.06,7.84,11.77,9.1,17.49,2.88,3.31-3.61,5.75-8.12,8.09-12.49,2.15-4,3.64-8.43,5.24-12.25,2.89,8.09,5,16.55,8.84,24.18,5.83,11.67,18.49,12.68,26.07,2,3.82-5.39,6.33-12.1,7.89-18.58,1.7-7,1.61-14.52,2.29-21.73,13.62,5.33,21.29,3.51,20.51-5.56-5.06,3.56-10.24,5.09-15.77,1.46-3.83-2.51-7-5.25-8.16-10.16-1.34-5.79-4.67-8.5-8.41-7-2.35.92-5.49,3.27-5.72,5.27-0.3,2.61,1.17,6.67,3.24,8,4.62,3.05,6.34,7,6.57,12,0.18,4.15,1.16,8.5.27,12.41-1.38,6-3.29,12.25-6.4,17.55-3.25,5.54-9.13,5.08-12.46-.47a44.87,44.87,0,0,1-4.65-11.5c-1.62-6.1-2.34-12.44-4.06-18.51-0.56-2-3-4.5-4.73-4.69s-4.53,1.73-5.78,3.48c-1.69,2.37-2.21,5.54-3.5,8.24-2.78,5.85-5.54,11.72-8.71,17.36-0.83,1.47-3.26,3.09-4.7,2.88s-3.36-2.49-3.65-4.11c-0.9-5-1.74-10.21-1.45-15.27,0.37-6.45,1.83-12.84,2.88-19.24,0.74-4.52-1-7.48-5-8.17-4.56-.78-6.36,1.81-7,5.8-0.25,1.65-.47,3.3-0.75,4.94-1,5.79-4.14,8.53-9.34,8.92-1.77-6.38-2.71-12.9-5.37-18.63-3.93-8.45-12.84-11.13-20.63-6.75a116.15,116.15,0,0,0-15.89,10.65c-6.71,5.41-10.07,13-12.46,21.19-3.43,11.69-10.35,20.88-21.1,26.72-7.7,4.18-15.49.86-17.59-7.6-1.14-4.59-1-9.55-.93-14.33,0-1.13,2-2.61,3.33-3.26,5.82-2.77,12.22-4.61,17.52-8.12a25.42,25.42,0,0,0,8.9-10.92c4.08-9.9-3.21-18.08-13.63-15.7a29.42,29.42,0,0,0-9.88,4.48c-8.26,5.71-13,14.05-16.36,23.34-2.26,6.26-4.45,12.57-7.21,18.61a50.48,50.48,0,0,1-7.12,11.36c-3.6,4.29-8,3.73-10.32-1.31-1.79-3.86-3.42-8.17-3.61-12.35-0.81-18.29-1-36.6-1.53-54.9-0.1-3.65,0-7.4-.8-10.92-1.3-5.78-6.25-7.56-11.11-4.12a19.66,19.66,0,0,0-5.47,5.72,160.2,160.2,0,0,0-8.94,16.7c-5.22,11.7-10,23.61-15.06,35.38a56.27,56.27,0,0,1-3.62,6.19l-1.53-.14c-1-3.59-2.52-7.13-2.78-10.77-1.24-17.43-2-34.89-3.21-52.32a76.31,76.31,0,0,0-2.42-16.21c-1.91-6.52-8.66-8.25-14-4a23.07,23.07,0,0,0-5.73,6.19c-4.1,7-8.58,14-11.51,21.53-7.15,18.46-13.53,37.22-20.19,55.87C455,633.64,453.14,639.25,451.2,644.85ZM605.64,331.62c-0.69,10.26-.2,20.64-2.38,30.43-2,9.22-6.73,17.9-10.67,26.62-0.68,1.5-3.65,3.07-5.2,2.76s-3.39-2.73-3.86-4.54A40.63,40.63,0,0,1,582,375.09c0.39-8.46,1.35-16.9,2.26-25.33,0.37-3.45-1-5.55-4.15-6.35s-5.58.77-6.56,3.86a39.43,39.43,0,0,0-1.51,7.31c-2,16.65-8.22,31.85-16.17,46.37a42.16,42.16,0,0,1-9.17,11c-3.77,3.32-7.81,2.83-11-1.05a38.7,38.7,0,0,1-6.42-10.59c-3.6-9.48-6.69-19.16-9.86-28.8-2.34-7.12-5.4-13.39-14.45-13.43,6.28-9.7,12.33-18.85,18.18-28.12,5.95-9.43,11.13-19.4,17.72-28.35a64,64,0,0,1,15.59-14.41c5.77-3.92,9.32-1.71,11.55,4.79,0.68,2,2.82,4.46,4.64,4.78s5.44-1.14,6.09-2.72a9.24,9.24,0,0,0-.77-7.66c-3.36-4.73-8.78-5.78-14.32-5.39-18.77,1.33-32.22,11.19-40.92,27.27-5.69,10.52-9.88,21.83-15.06,32.64-4.08,8.5-6.72,18.41-18.29,20.53-1.15.21-1.78,3.3-2.66,5,1.75,0.5,3.72,1.78,5.21,1.35,3.3-.94,6.35-2.72,10.27-4.51,1.32,2.11,3.23,4.26,4.12,6.77,2.17,6.11,3.75,12.42,5.78,18.58,2.81,8.51,5.19,17.25,8.93,25.35,4,8.58,12.27,11.57,21,7.9a30.89,30.89,0,0,0,11.79-8.75c4.21-5.26,7.35-11.45,10.46-17.49,2.38-4.63,4-9.64,6-14.4,1.37,4.5,2.22,9,4.07,13,3.5,7.58,11.62,9.22,17.76,3.56,2.87-2.65,5-6.15,7.14-9.5a79.86,79.86,0,0,0,4.12-8.59c1.3,4.82,2.06,9.45,3.79,13.67,4.22,10.28,13.78,12.38,21.4,4.26,4.35-4.64,7.21-10.67,10.7-16.1,0.72-1.13,1.24-2.39,1.94-3.76,1.16,5.08,1.76,9.76,3.3,14.12,4.26,12.05,14.41,14.18,23,4.77,3.54-3.86,6.22-8.52,9.39-13,0.38,1.43.76,2.86,1.15,4.29,4.07,14.81,17.34,20.15,30.4,12.08a32.75,32.75,0,0,0,7.75-6.22c4.81-5.63,9.19-11.63,13.71-17.43,0,0.31.14,1,.25,1.78,0.94,6.24,1.52,12.58,3,18.67,0.5,2,3.37,4.65,5.28,4.76s4.47-2.21,6-4.08,1.77-4.26,2.56-6.45c4-11.28,8-22.58,12.18-33.82,0.85-2.28,2.42-4.3,3.66-6.44a36.51,36.51,0,0,1,3.26,9.1c2.46,9,4.21,18.22,7.67,26.79,4.65,11.53,14.42,12.39,20.9,1.72,4.51-7.41,7-16,10.27-24.2,0.44-1.12-.09-2.62-0.17-3.95l-1.35-.28c-0.88,1.64-1.84,3.25-2.63,4.94-2.76,5.87-5.13,12-8.29,17.59-2.76,4.91-5.82,4.65-8.21-.36a55,55,0,0,1-3.26-9.41c-2-7.56-3.7-15.21-5.8-22.74-1.09-3.9-2.92-8.55-7.51-8.09-3.19.33-6.48,3.35-9,5.91-2.12,2.19-3.39,5.32-4.59,8.23-3.37,8.15-6.5,16.4-9.74,24.61-0.51,1.28-1.12,2.52-2.25,5.05-0.45-3.42-.88-5.38-0.93-7.34q-0.37-16-.55-32c0-3.66-1.19-6.37-5.25-6.43s-5.58,2.49-5.69,6.14c-0.12,4,.19,8-0.23,12-1.67,15.75-9.05,28.07-23.11,35.71-7,3.8-14.1.89-16.22-6.83-1.49-5.42-1.32-11.3-1.9-17,2.51-.53,3.82-0.72,5.08-1.08,8.63-2.47,16.62-6.1,22.26-13.43,3.93-5.12,4.3-12.34,1.21-16.35-3.21-4.16-9.86-5.62-16-2.52-4.22,2.13-8.77,4.84-11.43,8.54-4.4,6.11-7.61,13.12-10.93,19.95-3.19,6.56-5.79,13.41-8.88,20a19.07,19.07,0,0,1-3.94,5.12c-4.5,4.5-8.21,3.7-10.59-2.28a31.72,31.72,0,0,1-1.81-6.74c-2.68-17-.75-33.88,2.38-50.64,0.2-1.08,1.21-2.65,2.11-2.87,7.89-1.94,15.75-4.4,24-1.86,1.18,0.36,2.73-.5,4.1-0.8-1-1.15-1.83-3.13-2.95-3.29a83.37,83.37,0,0,0-13.8-.94c-3.88.1-7.75,1-12.13,1.68,1.67-8,3.22-15.34,4.68-22.67,0.65-3.26.06-6.18-3.63-7.12s-5.64,1.24-6.85,4.31a35.94,35.94,0,0,0-1.35,4.81c-1.54,6.41-3.05,12.82-4.38,18.39l-26.29,1.7c1.5-7.23,2.93-14.23,4.41-21.23,0.76-3.57.74-7-3.58-8-4.12-.94-6.17,1.82-7.05,5.37-1.76,7.1-3.74,14.19-4.86,21.4-0.75,4.82-3,4.86-6.44,3.43a17.54,17.54,0,0,1-3-1.7c-3.16-2.12-6.07-2.23-7.93,1.48s0.12,6.38,3.54,7.33C597.81,331,601.66,331.12,605.64,331.62ZM474.4,156.68c-4.4,1.07-11.57,2.43-18.48,4.63-4.94,1.57-6.53,5.18-5.42,10.33q7.46,34.64,15.11,69.25c1.21,5.49,3.6,6.08,7.76,2.07,3.24-3.12,6.31-6.42,9.64-9.43,16-14.41,33.31-26.58,54.68-31.73,5.82-1.4,6.83-3.11,3.32-8.15C525.57,171.48,504.83,158.31,474.4,156.68Zm300.41,0c-30.42,1.55-51.1,14.75-66.75,36.77a11,11,0,0,0-1,1.75c-1.56,3.36-1.21,5.28,3.06,6.4a114.27,114.27,0,0,1,19.28,6.66c17.59,8.19,32.34,20.33,45.81,34.15,1.38,1.42,3.83,3,5.38,2.68,1.33-.29,2.61-3.11,3-5q7.57-34.12,14.83-68.3c1.16-5.44-.38-8.95-5.65-10.62C786.09,159,779.07,157.72,774.81,156.69ZM442.35,267.08c8.19-2.73,8.14-2.77,6.27-10q-11.8-45.42-23.49-90.88c-2-7.81.37-13.34,7.89-16,8.4-3,17.08-6,25.87-7,28.23-3.48,53.87,4.57,76.85,20.61,10.7,7.47,20.15,16.72,30.75,25.65l6.69-3.36c-22-25.83-48.16-43.47-81-50.13-21.46-4.35-42.43-2.79-62.57,6.26-11.49,5.16-15.86,14.3-12.77,26.45Q425,201,433.39,233.44C436.29,244.66,439.35,255.85,442.35,267.08Zm364.06,0.55c0.57-1.81,1-2.9,1.25-4q12.28-47.35,24.51-94.72c3.26-12.7-1.25-21.64-13.36-27A91.25,91.25,0,0,0,781,133.74c-42.91.25-76.62,19.35-103.94,51.27a3.85,3.85,0,0,0-.3,1.52c1.24,0.62,2.4,1.25,3.6,1.8s2.36,1,3.61,1.52c1.87-2,3.51-3.92,5.23-5.72,22.67-23.7,49.66-38.86,82.84-41.56A88,88,0,0,1,815.87,150c7.58,3.41,10,8.55,8,16.45-2.76,11-5.49,22-8.32,32.91-5.5,21.25-11.05,42.48-16.67,64Zm54.31,267.58c-20.5.42-36.25,7.09-47.33,22.59-2.67,3.74-4.13,8.78-4.83,13.41-1.3,8.71,6.46,16,13.93,13.16,2.43-.91,4.86-4,5.67-6.57,1-3.2-1.56-5.75-4.82-6.44-4.26-.9-5-3.27-3.61-6.87,1-2.61,1.87-5.45,3.52-7.64,8.27-11,19.62-16.52,33.16-16.58,13.79-.06,21,9.91,16.24,22.89A45.15,45.15,0,0,1,862.4,578.8c-6.51,6.61-14.34,11.9-21.19,18.21-4.48,4.13-8.95,8.63-12,13.79-2,3.36-2.2,8.25-2,12.39a5.92,5.92,0,0,0,7.07,5.53c2.85-.56,6.24-2.58,7.68-5,1.82-3-.85-5.24-3.76-7-1.18-.7-2-3.29-1.75-4.8a9.25,9.25,0,0,1,3.08-5c8.35-7.06,16.83-14,25.35-20.84,5.44-4.38,11.53-8.06,16.44-12.95,11.22-11.18,8.11-27.59-6.37-34.06C870,536.94,864.45,536.21,860.72,535.22ZM626.55,440.28c-0.13-.09-0.53-0.34-0.89-0.64-5.81-4.67-12.37-4.42-16.31.63s-2.88,11.71,2.85,16.2c1.83,1.44,3.78,2.72,5.67,4.09,6.65,4.87,6.87,8.24,1,14.37-10.63,11.12-38.15,12.12-43.19-10.25-0.24-1.08-1.85-1.85-2.82-2.77-0.74,1.26-2,2.47-2.1,3.79a9.77,9.77,0,0,0,1.09,4.81c4.57,9.66,11.78,16.12,22.7,17.28,13.39,1.42,24.54-2.73,32.29-14.32,9.79,11.89,18.55,15.7,32.62,14.34,10.75-1,22.09-10.93,23.46-20.79,0.22-1.59-1-3.38-1.53-5.07-1.14,1.28-2.92,2.4-3.3,3.88-2.28,9-10.76,16-20.74,16.79-11,.89-22.28-4.76-25.79-12.73-1.17-2.65-1.07-4.72,1.3-6.58,3.4-2.67,6.87-5.27,10.08-8.16a10.84,10.84,0,0,0,2.47-13.62c-2.29-4.2-7.4-6.65-11.84-5.18C631.15,437.15,629,438.86,626.55,440.28ZM490,313.61a89.38,89.38,0,0,0-1.17-10.36c-0.76-3.66-3.73-5-7.27-4.43s-5.36,2.85-5.34,6.64c0.06,11.26,1.21,22.69-.3,33.74-2.31,16.89-6.32,33.57-10,50.26-1.34,6.14-5.58,9.62-12.17,9.85a30.11,30.11,0,0,0-7.4,1,8,8,0,0,0-6.11,8.62c0.2,4.1,3,6.81,6.68,6.81s8.14-.7,10.5-3a64.91,64.91,0,0,0,12.44-15.9C483.48,371.57,487.46,343.76,490,313.61Zm39.19,243.9,1.83-1.08v-33.1a9.42,9.42,0,0,1,2.71,4.72c1.13,3.65,1.93,7.44,3.47,10.9,0.68,1.51,2.74,2.66,4.43,3.3,0.43,0.16,2.1-2.15,2.74-3.53,1.95-4.2,3.67-8.51,6-13.88,0.54,10,.93,18.42,1.49,26.88,0.21,3.08,1.58,5.35,4.37,5.22,0-15.79.12-31.36-.17-46.93,0-1.72-2.34-3.39-4.31-6l-11.4,27.72c-10.57-25-10.57-25-14.63-25.74,0,15.78-.09,31.52.15,47.25C525.91,554.65,528.07,556.07,529.24,557.51Zm14-281.77c0-9,.42-17.45-0.11-25.83a241,241,0,0,0-3.26-26.16c-0.45-2.57-2.91-4.78-5.06-8.09-1.59,2.91-2.52,4.13-3,5.5-5.11,15.46-10.21,30.93-15.17,46.43-1.19,3.71,1,5.42,4.9,6.43,2.87-7.09,2.58-18.27,15.63-13C538.54,265.8,535.45,273,543.19,275.74ZM564,256.28c12.91,17.94,12.91,17.94,17.12,17l-9-12.34c-3-4.19-3.42-8,.51-12.18,1.84-1.94,2.86-4.9,3.61-7.58,3.34-12-6.19-24.21-18-23.49-2.67.16-3.8,0.88-3.74,3.82,0.34,15.48.5,31,.65,46.43,0,3.85,1.73,6.09,5.52,7C563.41,269,558.13,261.93,564,256.28Zm126.31-11.2c-0.41-4.3-.14-8.81-1.42-12.83a35.54,35.54,0,0,0-6.52-12c-3.06-3.61-10-3.58-12.16-.94-7.87,9.78-9.68,37.31-3.14,48,4.76,7.76,14,7.53,18.43-.48A40,40,0,0,0,690.27,245.08ZM702.47,218a94.86,94.86,0,0,0-3,34.17c0.46,5,2.4,10,4.55,14.54s6.33,6.47,11.27,5.48c4.54-.91,6.6-4.64,6.83-8.8,0.74-13.59,1.27-27.19,1.43-40.79,0-1.89-2.45-3.82-3.77-5.72l-1.77.78a45.12,45.12,0,0,0-.61,5.16c-0.06,8.82.19,17.64-.13,26.44A56.25,56.25,0,0,1,715,262.44c-0.44,1.54-2.81,3.3-4.46,3.46-1.14.11-2.76-2.19-3.73-3.69a7.05,7.05,0,0,1-.78-3.86c0.39-11.25.68-22.5,1.45-33.73C707.79,220.64,706.51,218.79,702.47,218ZM592,267.27V251.85l17.24-1.35c-4.14-9.41-12.07-3.09-17.77-6.42l1.93-20.22H610l0.85-1.73c-1.92-1.29-3.75-3.46-5.79-3.69a88.46,88.46,0,0,0-15-.12c-1.1.06-3,1.77-3,2.79-0.71,14.78-1.4,29.58-1.46,44.38,0,2.61,2.27,6.71,4.48,7.58,6.94,2.71,14,1,21.57-1.26C606.16,262.52,598.09,270.77,592,267.27ZM688.2,506.32a5.45,5.45,0,0,0-.79,1.66c0.06,14.48,0,29,.4,43.45,0,1.76,2.35,3.47,3.6,5.2l1.61-.83c0-5.09-.17-10.19.11-15.26,0.08-1.41,1.27-3.7,2.35-4,4.13-1,8.41-1.33,13.27-2,0,5.71,0,10.67,0,15.63,0,3.37,1.23,5.32,5.41,5.3,0-15.13.11-30.07-.17-45,0-1.57-2.41-3.11-3.69-4.66l-1.52.79q0,5.42,0,10.85c0,3.63,0,7.25,0,11.21L693,530.51c0-6.34-.08-12.29,0-18.23C693.1,509,692,506.78,688.2,506.32Zm-54,50.78,1.35-.92c-0.68-1.11-1.31-2.25-2-3.33q-3.62-5.33-7.31-10.62c-1.53-2.2-1.11-3.93.39-6.23,2.13-3.28,4.17-7,4.9-10.74,2-10.26-6.53-20.17-16.19-19.28-1.29.12-3.5,1.77-3.51,2.72q-0.07,21.73.46,43.47c0.07,3.06,1.81,5.22,5.5,4.77,0-3-.2-5.82.06-8.6,0.23-2.45-1.63-5.91,2.94-7C624.7,547.06,627,554.32,634.2,557.09Zm9.1-315.82-1.15-.15c-1-6.21-2.08-12.41-3-18.63-0.44-3.09-2-4.58-6.61-5.35,1.81,10.54,2.88,20.36,5.48,29.77,0.79,2.87,1.95,5.17.91,8.08-1.39,3.91-2.55,7.92-4.14,11.74-1.28,3.07-.62,5.57,2.26,6.46,1,0.3,3.62-2.12,4.26-3.78,5.83-15.17,11.29-30.48,17.07-45.67,1.63-4.28,0-6.14-4.36-7.48ZM676,510.37c-1.93-4.34-5.12-5.46-8.62-3.53-2.78,1.53-6,3.8-7.11,6.53-2.87,7-5.55,14.29-6.71,21.72-1.6,10.25,3.31,18.43,11,21.18a9.85,9.85,0,0,0,12.79-6.18c0.74-2.36.92-4.89,1.49-7.31s1.34-4.84,2.33-8.34c-1.88-3.4-11-3.45-17.8,1.23,1.4,5.54,5.89,3.28,10,3.49-0.46,2.69-.21,5.54-1.46,7.36a12.44,12.44,0,0,1-6.44,4.54c-1.28.37-4.18-1.44-4.85-2.94C655,535.67,663.32,515.14,676,510.37Zm-87.09,1,0.6-1.45c-1.57-1.08-3-2.91-4.71-3.1a86.93,86.93,0,0,0-14-.34c-1,0-2.73,1.93-2.78,3-0.61,13.12-1.23,26.26-1.17,39.38,0,2.52,2.46,6.47,4.68,7.27,6,2.15,12.15.37,18.83-1.52-5.13-8.17-12.35-1.07-17.88-4.06v-14l15.61-.87c-3.69-8.56-11-3-16.13-6l1.88-18.28h15ZM690,451.56c-0.58.54-2,1.29-2,2a4,4,0,0,0,1.77,3c2.86,1.32,6,2.12,8.87,3.32,26.15,10.7,49.31,25.57,67.11,48,0.76,1,2.64,1,4,1.54a18.93,18.93,0,0,0-.4-4.63c-0.4-1.19-1.53-2.15-2.39-3.16-20-23.48-45.32-38.84-74-49.09C692.2,452.16,691.39,452,690,451.56Zm-121.88,4.22c-0.63-4.63-3.07-3.47-5.29-2.72a183.78,183.78,0,0,0-44.06,22.17,136.94,136.94,0,0,0-32.44,30.16c-0.77,1-.46,2.83-0.66,4.28,1.49-.44,3.43-0.43,4.4-1.39,5.76-5.76,10.93-12.17,17-17.59,16.59-14.86,35.83-25.32,56.76-32.77A37.22,37.22,0,0,0,568.17,455.78Zm128.17-12.13a42.84,42.84,0,0,0-7,.11c-1.11.19-2,1.56-3,2.39a14.59,14.59,0,0,0,3.16,2.34c1,0.4,2.3.07,3.46,0.12,25.95,1.11,50.69,6.63,73.21,20.17,2.56,1.54,4.89,3.51,7.54,4.83,1.28,0.64,3.07.24,4.64,0.31-0.66-1.44-1.24-2.92-2-4.29a5,5,0,0,0-1.6-1.16C751.15,452.17,724.48,445.67,696.34,443.66Zm-138.41.92v0.09c-1.16.06-2.33,0.09-3.49,0.19-26.82,2.27-52.06,9.27-74.28,25.08-1.33.94-1.73,3.19-2.56,4.82,1.71-.24,3.8.08,5.06-0.8A130.07,130.07,0,0,1,518,456.79c15.35-4.89,31.11-7,47.14-7.77,1.54-.07,3-1.57,4.5-2.4-1.58-.79-3.1-2-4.76-2.27C562.63,444,560.26,444.47,557.93,444.58Zm155.35-11.13c-7.46.59-14.92,1.08-22.36,1.87-1,.11-1.91,1.72-2.86,2.64,1.09,0.71,2.13,1.89,3.29,2,1.77,0.21,3.62-.35,5.44-0.51,26.47-2.3,52.19.32,76.53,11.83,2,0.92,3.76,2.23,5.79,2.88a3.65,3.65,0,0,0,3.07-1.21c0.38-.45-0.14-2.22-0.78-2.82a16.65,16.65,0,0,0-3.87-2.24C757.37,437.56,735.73,434,713.28,433.46Zm-148,7.31,2.48-2c-1.07-1-2.09-2.69-3.2-2.74-11-.54-21.95-1.42-32.88-1-19.69.72-38.52,5.4-55.88,15-1.11.62-1.59,2.39-2.36,3.63,1.54,0.22,3.33,1,4.59.55,5.56-2.19,10.84-5.16,16.47-7.12C517.12,439.18,540.39,437.89,565.31,440.76ZM730.84,513.3c0,1.82-.08,4.28,0,6.73,0.37,9.62.65,19.26,1.3,28.86,0.21,3.08.49,6.91,5.62,6.74L736,512.17l10.05-2.4,0.27-2.28c-2.15-.76-4.27-2-6.47-2.16a44.3,44.3,0,0,0-8.92.67c-3.29.43-6.54,1.08-9.81,1.63l-0.26,2.29Zm-89.11-7.13-1.83,1c0,14.91-.05,29.81,0,44.72,0,2.86,1.6,4.51,5.27,4,0-15,.11-29.92-0.15-44.82C645,509.39,642.9,507.79,641.73,506.17ZM834.29,658c5.14,0,9-3.49,8.9-8-0.11-4-4.19-7.82-8.3-7.68a8.11,8.11,0,0,0-7.81,8.07C827.09,655.16,829.83,658.05,834.29,658ZM581.78,318.43c4.21,0,8.37-4.69,8.46-9.48,0.08-4.51-2.68-7.48-6.81-7.33s-8.34,4.88-8.29,9.57C575.17,315.17,578.19,318.45,581.78,318.43Z" transform="translate(-415.85 -133.59)"/>
  <path d="M451.2,644.85c1.94-5.59,3.84-11.21,5.83-16.78,6.66-18.65,13-37.41,20.19-55.87,2.92-7.54,7.41-14.5,11.51-21.53a23.07,23.07,0,0,1,5.73-6.19c5.37-4.22,12.13-2.49,14,4a76.31,76.31,0,0,1,2.42,16.21c1.18,17.43,2,34.89,3.21,52.32,0.26,3.64,1.82,7.18,2.78,10.77l1.53,0.14a56.27,56.27,0,0,0,3.62-6.19c5.07-11.77,9.84-23.68,15.06-35.38a160.2,160.2,0,0,1,8.94-16.7,19.66,19.66,0,0,1,5.47-5.72c4.87-3.44,9.82-1.67,11.11,4.12,0.79,3.52.7,7.27,0.8,10.92,0.5,18.3.73,36.61,1.53,54.9,0.18,4.18,1.81,8.49,3.61,12.35,2.34,5,6.72,5.6,10.32,1.31A50.48,50.48,0,0,0,586,636.19c2.76-6,5-12.35,7.21-18.61,3.35-9.28,8.1-17.62,16.36-23.34a29.42,29.42,0,0,1,9.88-4.48c10.42-2.39,17.72,5.8,13.63,15.7a25.42,25.42,0,0,1-8.9,10.92c-5.3,3.52-11.69,5.36-17.52,8.12-1.37.65-3.31,2.13-3.33,3.26-0.08,4.78-.2,9.74.93,14.33,2.1,8.46,9.89,11.78,17.59,7.6,10.75-5.84,17.67-15,21.1-26.72,2.39-8.15,5.75-15.78,12.46-21.19a116.15,116.15,0,0,1,15.89-10.65c7.78-4.38,16.7-1.7,20.63,6.75,2.66,5.73,3.61,12.26,5.37,18.63,5.2-.39,8.36-3.13,9.34-8.92,0.28-1.64.5-3.29,0.75-4.94,0.61-4,2.41-6.58,7-5.8,4,0.69,5.77,3.65,5,8.17-1.05,6.4-2.51,12.79-2.88,19.24-0.29,5.06.55,10.24,1.45,15.27,0.29,1.62,2.21,3.9,3.65,4.11s3.87-1.4,4.7-2.88c3.17-5.64,5.94-11.51,8.71-17.36,1.28-2.7,1.81-5.87,3.5-8.24,1.25-1.76,3.94-3.68,5.78-3.48s4.17,2.73,4.73,4.69c1.72,6.06,2.44,12.41,4.06,18.51a44.87,44.87,0,0,0,4.65,11.5c3.33,5.55,9.21,6,12.46.47,3.11-5.3,5-11.5,6.4-17.55,0.89-3.91-.09-8.26-0.27-12.41-0.22-5.07-1.94-9-6.57-12-2.07-1.37-3.54-5.43-3.24-8,0.23-2,3.38-4.35,5.72-5.27,3.73-1.46,7.06,1.26,8.41,7,1.14,4.91,4.33,7.65,8.16,10.16,5.53,3.62,10.71,2.1,15.77-1.46,0.78,9.07-6.89,10.89-20.51,5.56-0.68,7.21-.59,14.69-2.29,21.73-1.56,6.48-4.07,13.2-7.89,18.58-7.58,10.7-20.24,9.69-26.07-2C744,643.55,741.9,635.09,739,627c-1.61,3.83-3.09,8.22-5.24,12.25-2.33,4.37-4.77,8.88-8.09,12.49-5.72,6.22-14.43,5-17.49-2.88-2.24-5.72-2.58-12.24-3.37-18.45-0.44-3.43-.08-7-0.08-10.78-5.38,1.48-9.8,2.72-11.38,9.59-1.37,5.94-4.88,11.68-8.51,16.75-6.27,8.75-14.81,14.07-26.14,12-10.62-1.92-14.57-10.07-17-20.26a37.34,37.34,0,0,1-2.88,3.61c-5.5,5.26-10.43,11.43-16.72,15.48-11.79,7.58-24.56,2.41-29.28-10.86-0.83-2.34-1.38-4.78-2.2-7.7a93.23,93.23,0,0,1-4.81,8.83c-2.35,3.4-4.74,6.94-7.79,9.66-7.4,6.58-16.48,5.24-20-4a103.32,103.32,0,0,1-6.34-28.49c-1.07-14.41-.36-29-0.4-43.45a19.88,19.88,0,0,0-1-7.37c-2.08,3.62-4.56,7.08-6.17,10.9-5.94,14.12-11.54,28.37-17.37,42.53a65.22,65.22,0,0,1-5.16,10.77c-3.72,5.73-10.45,6-13.91.21a49.62,49.62,0,0,1-5.5-15.32c-4-19.88-3.72-40.08-3.87-60.24,0-3.37-.54-6.73-0.83-10.1l-1.91-.66c-2.28,3.27-5.25,6.26-6.73,9.87-7.16,17.38-14.46,34.73-20.63,52.47-4.86,14-8.14,28.48-12.15,42.74-0.95,3.36-1.49,7-3.21,9.93-1.32,2.26-4.17,5-6.38,5s-5.77-2.45-6.67-4.67a48.65,48.65,0,0,1-3.21-14.47c-1.32-17.49,2.94-34.42,5.67-51.5,1.16-7.23,2.22-14.47,3.14-21.73,1-7.84-.34-9.94-7.63-12.94-5.43-2.24-7.23-5.8-5-10,2.43-4.59,9.92-6.17,13.81-1.94,2.8,3,5.25,7.71,5.33,11.71,0.23,11.79-.74,23.6-1.33,35.4-0.58,11.64-1.34,23.27-1.86,34.91a64.55,64.55,0,0,0,.66,8.27Zm237.67-21.21c-12.94-.58-22.09-5.89-26.07-19.11-7.41,9.29-9.75,19.35-9.08,30.25,0.4,6.43,2.32,12.56,9,14.87s12.39-.8,16.95-5.73C684.76,638.39,687.33,631.61,688.87,623.64Zm-84.8-6c11.93-.05,19.3-6.4,20.8-16.19,0.35-2.29-1.05-4.85-1.65-7.28-2.31.88-5.62,1.07-6.75,2.74C612,603.55,608.14,610.67,604.07,617.62Zm85.19,0.06c1.38-6.14.35-13.93-3-18.53-1.24-1.7-3.73-3.86-5.3-3.61-1.95.31-4.23,2.57-5.16,4.55C671.72,608.73,678.9,617.93,689.26,617.68Z" transform="translate(-415.85 -133.59)"/>
  <path d="M605.64,331.62c-4-.51-7.83-0.58-11.43-1.59-3.42-1-5.4-3.62-3.54-7.33s4.78-3.6,7.93-1.48a17.54,17.54,0,0,0,3,1.7c3.48,1.44,5.69,1.4,6.44-3.43,1.12-7.21,3.1-14.3,4.86-21.4,0.88-3.56,2.94-6.31,7.05-5.37,4.32,1,4.33,4.4,3.58,8-1.48,7-2.91,14-4.41,21.23l26.29-1.7c1.32-5.57,2.84-12,4.38-18.39a35.94,35.94,0,0,1,1.35-4.81c1.21-3.06,3.27-5.23,6.85-4.31s4.28,3.86,3.63,7.12c-1.46,7.33-3,14.63-4.68,22.67,4.39-.64,8.25-1.59,12.13-1.68a83.37,83.37,0,0,1,13.8.94c1.12,0.16,2,2.14,2.95,3.29-1.38.3-2.93,1.16-4.1,0.8-8.29-2.54-16.16-.09-24,1.86-0.91.22-1.91,1.79-2.11,2.87-3.13,16.76-5.06,33.61-2.38,50.64A31.72,31.72,0,0,0,655,388c2.38,6,6.09,6.78,10.59,2.28a19.07,19.07,0,0,0,3.94-5.12c3.09-6.61,5.68-13.46,8.88-20,3.32-6.82,6.53-13.84,10.93-19.95,2.67-3.7,7.21-6.41,11.43-8.54,6.15-3.1,12.81-1.65,16,2.52,3.09,4,2.73,11.23-1.21,16.35-5.63,7.33-13.63,11-22.26,13.43-1.26.36-2.57,0.55-5.08,1.08,0.58,5.74.41,11.62,1.9,17,2.12,7.72,9.22,10.63,16.22,6.83,14.06-7.64,21.44-20,23.11-35.71,0.42-4,.11-8,0.23-12,0.11-3.65,1.74-6.2,5.69-6.14s5.21,2.77,5.25,6.43q0.17,16,.55,32c0,2,.48,3.93.93,7.34,1.13-2.53,1.74-3.77,2.25-5.05,3.24-8.2,6.37-16.46,9.74-24.61,1.2-2.9,2.48-6,4.59-8.23,2.48-2.56,5.77-5.58,9-5.91,4.58-.47,6.42,4.18,7.51,8.09,2.1,7.53,3.78,15.18,5.8,22.74a55,55,0,0,0,3.26,9.41c2.38,5,5.45,5.27,8.21.36,3.17-5.64,5.53-11.72,8.29-17.59,0.79-1.69,1.75-3.29,2.63-4.94l1.35,0.28c0.08,1.32.61,2.83,0.17,3.95-3.24,8.15-5.77,16.78-10.27,24.2-6.49,10.67-16.25,9.8-20.9-1.72-3.46-8.57-5.21-17.82-7.67-26.79a36.51,36.51,0,0,0-3.26-9.1c-1.24,2.14-2.81,4.15-3.66,6.44C755,368.55,751,379.85,747,391.13c-0.79,2.19-1.17,4.72-2.56,6.45s-4,4.19-6,4.08-4.78-2.74-5.28-4.76c-1.52-6.1-2.1-12.43-3-18.67-0.11-.73-0.2-1.47-0.25-1.78-4.52,5.81-8.9,11.81-13.71,17.43a32.75,32.75,0,0,1-7.75,6.22c-13.06,8.07-26.33,2.73-30.4-12.08-0.39-1.43-.77-2.86-1.15-4.29-3.17,4.43-5.84,9.09-9.39,13-8.64,9.42-18.78,7.28-23-4.77-1.54-4.35-2.14-9-3.3-14.12-0.7,1.37-1.21,2.63-1.94,3.76-3.49,5.43-6.35,11.47-10.7,16.1-7.61,8.12-17.18,6-21.4-4.26-1.73-4.22-2.49-8.85-3.79-13.67a79.86,79.86,0,0,1-4.12,8.59c-2.11,3.35-4.27,6.85-7.14,9.5-6.14,5.66-14.26,4-17.76-3.56-1.85-4-2.7-8.49-4.07-13-1.94,4.76-3.57,9.78-6,14.4-3.11,6-6.25,12.23-10.46,17.49A30.89,30.89,0,0,1,542,421.92c-8.76,3.67-17.06.68-21-7.9-3.75-8.1-6.12-16.84-8.93-25.35-2-6.16-3.61-12.47-5.78-18.58-0.89-2.51-2.8-4.66-4.12-6.77-3.92,1.79-7,3.58-10.27,4.51-1.49.42-3.46-.85-5.21-1.35,0.87-1.75,1.5-4.84,2.66-5,11.57-2.12,14.21-12,18.29-20.53,5.18-10.8,9.38-22.12,15.06-32.64,8.7-16.09,22.14-25.94,40.92-27.27,5.54-.39,11,0.66,14.32,5.39a9.24,9.24,0,0,1,.77,7.66c-0.65,1.58-4.17,3.06-6.09,2.72s-4-2.8-4.64-4.78c-2.22-6.5-5.78-8.7-11.55-4.79a64,64,0,0,0-15.59,14.41c-6.59,8.95-11.78,18.92-17.72,28.35-5.85,9.28-11.9,18.43-18.18,28.12,9.05,0,12.1,6.31,14.45,13.43,3.17,9.64,6.26,19.32,9.86,28.8a38.7,38.7,0,0,0,6.42,10.59c3.21,3.88,7.24,4.38,11,1.05a42.16,42.16,0,0,0,9.17-11c7.94-14.52,14.2-29.72,16.17-46.37a39.43,39.43,0,0,1,1.51-7.31c1-3.09,3.28-4.69,6.56-3.86s4.53,2.91,4.15,6.35c-0.91,8.43-1.86,16.87-2.26,25.33a40.63,40.63,0,0,0,1.55,11.81c0.47,1.81,2.29,4.23,3.86,4.54s4.52-1.26,5.2-2.76c3.94-8.73,8.62-17.4,10.67-26.62C605.43,352.27,604.95,341.88,605.64,331.62Zm38-.48c-2.45,0-4.85.41-7-.11-2.63-.63-5.85-1.38-7.44-3.25-2.95-3.46-5.59-.71-8.16-0.32-1.37.21-3.33,2.36-3.49,3.8-1.35,12.22-2.84,24.46-3.26,36.73-0.22,6.37,1.08,13,2.72,19.17,1.85,7,6.53,8.06,11.16,2.61a58.59,58.59,0,0,0,13.21-28.16C643,351.82,642.89,341.73,643.61,331.14Zm46.07,31.54,1.59,1.06c10-1,15.88-6.86,18.35-16.15,0.61-2.29-.82-5.12-1.31-7.71-2.39,1-5.8,1.22-7,3C697,349.2,693.49,356,689.67,362.68Z" transform="translate(-415.85 -133.59)"/>
  <path d="M474.4,156.68c30.43,1.63,51.17,14.8,66.62,37,3.51,5,2.5,6.74-3.32,8.15C516.33,206.95,499,219.11,483,233.53c-3.34,3-6.41,6.31-9.64,9.43-4.16,4-6.55,3.42-7.76-2.07Q458,206.27,450.5,171.63c-1.11-5.15.47-8.75,5.42-10.33C462.83,159.11,470,157.75,474.4,156.68Z" transform="translate(-415.85 -133.59)"/>
  <path d="M774.81,156.69c4.26,1,11.28,2.34,18,4.48,5.26,1.67,6.81,5.18,5.65,10.62q-7.32,34.17-14.83,68.3c-0.42,1.9-1.7,4.72-3,5-1.55.34-4-1.27-5.38-2.68-13.47-13.82-28.22-26-45.81-34.15a114.27,114.27,0,0,0-19.28-6.66c-4.26-1.12-4.62-3-3.06-6.4a11,11,0,0,1,1-1.75C723.71,171.44,744.39,158.24,774.81,156.69Z" transform="translate(-415.85 -133.59)"/>
  <path d="M442.35,267.08c-3-11.23-6.06-22.42-9-33.64Q425,201,416.81,168.62c-3.08-12.15,1.29-21.29,12.77-26.45,20.14-9,41.12-10.61,62.57-6.26,32.86,6.67,59,24.31,81,50.13l-6.69,3.36c-10.59-8.93-20-18.18-30.75-25.65-23-16-48.62-24.09-76.85-20.61-8.79,1.08-17.47,4-25.87,7-7.52,2.71-9.89,8.24-7.89,16q11.64,45.47,23.49,90.88C450.49,264.31,450.53,264.35,442.35,267.08Z" transform="translate(-415.85 -133.59)"/>
  <path d="M806.41,267.63l-7.5-4.21c5.62-21.57,11.18-42.8,16.67-64,2.83-11,5.56-21.94,8.32-32.91,2-7.9-.46-13-8-16.45A88,88,0,0,0,772,142.57c-33.18,2.69-60.17,17.86-82.84,41.56-1.72,1.8-3.36,3.67-5.23,5.72-1.25-.52-2.44-1-3.61-1.52s-2.36-1.17-3.6-1.8a3.85,3.85,0,0,1,.3-1.52c27.32-31.93,61-51,103.94-51.27a91.25,91.25,0,0,1,37.81,8.14c12.11,5.37,16.62,14.31,13.36,27Q820,216.28,807.66,263.61C807.37,264.73,807,265.82,806.41,267.63Z" transform="translate(-415.85 -133.59)"/>
  <path d="M860.72,535.22c3.73,1,9.3,1.72,14.22,3.92,14.49,6.48,17.59,22.89,6.37,34.06-4.91,4.89-11,8.57-16.44,12.95-8.52,6.86-17,13.77-25.35,20.84a9.25,9.25,0,0,0-3.08,5c-0.26,1.51.56,4.1,1.75,4.8,2.9,1.72,5.57,3.95,3.76,7-1.45,2.4-4.84,4.42-7.68,5a5.92,5.92,0,0,1-7.07-5.53c-0.21-4.14,0-9,2-12.39,3.09-5.16,7.55-9.66,12-13.79,6.85-6.31,14.68-11.6,21.19-18.21a45.15,45.15,0,0,0,10.25-15.63c4.71-13-2.45-23-16.24-22.89-13.54.06-24.89,5.62-33.16,16.58-1.65,2.19-2.48,5-3.52,7.64-1.44,3.61-.65,6,3.61,6.87,3.26,0.69,5.82,3.23,4.82,6.44-0.8,2.59-3.23,5.66-5.67,6.57-7.47,2.8-15.23-4.45-13.93-13.16,0.69-4.64,2.15-9.67,4.83-13.41C824.47,542.31,840.22,535.64,860.72,535.22Z" transform="translate(-415.85 -133.59)"/>
  <path d="M626.55,440.28c2.47-1.42,4.6-3.13,7-3.94,4.45-1.47,9.55,1,11.84,5.18a10.84,10.84,0,0,1-2.47,13.62c-3.21,2.88-6.68,5.49-10.08,8.16-2.37,1.86-2.47,3.93-1.3,6.58,3.51,8,14.8,13.61,25.79,12.73,10-.81,18.46-7.83,20.74-16.79,0.38-1.48,2.16-2.59,3.3-3.88,0.55,1.7,1.75,3.48,1.53,5.07-1.37,9.86-12.71,19.75-23.46,20.79-14.07,1.36-22.83-2.45-32.62-14.34-7.75,11.59-18.9,15.74-32.29,14.32-10.93-1.16-18.14-7.62-22.7-17.28a9.77,9.77,0,0,1-1.09-4.81c0.12-1.32,1.35-2.53,2.1-3.79,1,0.92,2.57,1.69,2.82,2.77,5,22.38,32.56,21.37,43.19,10.25,5.86-6.13,5.64-9.5-1-14.37-1.88-1.38-3.83-2.66-5.67-4.09-5.72-4.49-6.85-11.05-2.85-16.2s10.5-5.3,16.31-.63C626,439.94,626.42,440.19,626.55,440.28Z" transform="translate(-415.85 -133.59)"/>
  <path d="M490,313.61c-2.59,30.15-6.57,58-20.1,83.29a64.91,64.91,0,0,1-12.44,15.9c-2.36,2.25-6.93,3-10.5,3s-6.48-2.71-6.68-6.81a8,8,0,0,1,6.11-8.62,30.11,30.11,0,0,1,7.4-1c6.59-.23,10.83-3.71,12.17-9.85,3.64-16.69,7.65-33.37,10-50.26,1.51-11.06.36-22.48,0.3-33.74,0-3.79,1.71-6.06,5.34-6.64s6.51,0.78,7.27,4.43A89.38,89.38,0,0,1,490,313.61Z" transform="translate(-415.85 -133.59)"/>
  <path d="M529.24,557.51c-1.17-1.44-3.33-2.86-3.35-4.32-0.24-15.73-.15-31.47-0.15-47.25,4.07,0.74,4.07.74,14.63,25.74L551.76,504c2,2.65,4.28,4.33,4.31,6,0.28,15.56.17,31.13,0.17,46.93-2.78.14-4.16-2.13-4.37-5.22-0.57-8.45-1-16.92-1.49-26.88-2.28,5.37-4,9.67-6,13.88-0.64,1.38-2.31,3.69-2.74,3.53-1.69-.64-3.75-1.78-4.43-3.3-1.55-3.46-2.34-7.25-3.47-10.9a9.42,9.42,0,0,0-2.71-4.72v33.1Z" transform="translate(-415.85 -133.59)"/>
  <path d="M543.19,275.74c-7.74-2.78-4.65-9.94-6.06-14.67-13.05-5.31-12.76,5.87-15.63,13-3.86-1-6.08-2.72-4.9-6.43,5-15.51,10.06-31,15.17-46.43,0.45-1.37,1.38-2.59,3-5.5,2.15,3.31,4.61,5.52,5.06,8.09a241,241,0,0,1,3.26,26.16C543.61,258.28,543.19,266.72,543.19,275.74Zm-7.11-42.56-1.26-.12-6.47,21h8.91Z" transform="translate(-415.85 -133.59)"/>
  <path d="M564,256.28c-5.83,5.65-.56,12.75-3.3,18.63-3.79-.88-5.48-3.12-5.52-7-0.15-15.48-.31-31-0.65-46.43-0.06-2.95,1.08-3.66,3.74-3.82,11.8-.72,21.34,11.52,18,23.49-0.75,2.68-1.77,5.63-3.61,7.58-3.93,4.16-3.55,8-.51,12.18l9,12.34C576.88,274.22,576.88,274.22,564,256.28Zm-2.84-6,1.34,0.7c2.52-4.18,5.67-8.11,7.44-12.59,3.41-8.62-.59-14.84-8.77-14.28v26.17Z" transform="translate(-415.85 -133.59)"/>
  <path d="M690.27,245.08a40,40,0,0,1-4.81,21.71c-4.46,8-13.67,8.24-18.43.48-6.53-10.65-4.73-38.17,3.14-48,2.12-2.64,9.1-2.66,12.16.94a35.54,35.54,0,0,1,6.52,12C690.13,236.27,689.86,240.78,690.27,245.08Zm-5.9-1.14c-0.81-6.9-1-11.58-2.05-16.08-0.35-1.56-2.58-3.61-4.09-3.74a5.89,5.89,0,0,0-4.69,3,64,64,0,0,0-3.34,34.73c0.32,1.76,1.73,4.59,2.78,4.67,1.77,0.12,3.84-1.36,5.44-2.6a7.18,7.18,0,0,0,2.32-3.74C682.23,254.12,683.48,248,684.37,243.94Z" transform="translate(-415.85 -133.59)"/>
  <path d="M702.47,218c4,0.79,5.32,2.64,5,6.62-0.77,11.22-1.06,22.48-1.45,33.73a7.05,7.05,0,0,0,.78,3.86c1,1.5,2.59,3.81,3.73,3.69,1.64-.16,4-1.92,4.46-3.46a56.25,56.25,0,0,0,2.19-13.19c0.32-8.8.06-17.63,0.13-26.44a45.12,45.12,0,0,1,.61-5.16l1.77-.78c1.32,1.91,3.79,3.83,3.77,5.72-0.16,13.6-.69,27.21-1.43,40.79-0.23,4.17-2.29,7.89-6.83,8.8-4.93,1-9.2-1.06-11.27-5.48s-4.09-9.58-4.55-14.54A94.86,94.86,0,0,1,702.47,218Z" transform="translate(-415.85 -133.59)"/>
  <path d="M592,267.27c6.13,3.5,14.2-4.75,19.66,4.54-7.53,2.27-14.63,4-21.57,1.26-2.22-.87-4.49-5-4.48-7.58,0.06-14.8.76-29.59,1.46-44.38,0-1,1.93-2.72,3-2.79a88.46,88.46,0,0,1,15,.12c2,0.24,3.87,2.4,5.79,3.69L610,223.87H593.36l-1.93,20.22c5.7,3.32,13.63-3,17.77,6.42L592,251.85v15.42Z" transform="translate(-415.85 -133.59)"/>
  <path d="M688.2,506.32c3.81,0.46,4.9,2.64,4.84,6-0.11,5.94,0,11.89,0,18.23l15.75-1.82c0-4,0-7.59,0-11.21s0-7.23,0-10.85l1.52-.79c1.29,1.55,3.66,3.08,3.69,4.66,0.28,14.94.17,29.89,0.17,45-4.17,0-5.45-1.93-5.41-5.3,0.07-5,0-9.91,0-15.63-4.85.67-9.14,1-13.27,2-1.07.26-2.27,2.54-2.35,4-0.28,5.07-.11,10.17-0.11,15.26l-1.61.83c-1.26-1.73-3.56-3.44-3.6-5.2-0.38-14.48-.35-29-0.4-43.45A5.45,5.45,0,0,1,688.2,506.32Z" transform="translate(-415.85 -133.59)"/>
  <path d="M634.2,557.09c-7.21-2.78-9.49-10-13.44-15.76-4.57,1.08-2.71,4.54-2.94,7-0.26,2.78-.06,5.61-0.06,8.6-3.69.45-5.43-1.71-5.5-4.77q-0.52-21.73-.46-43.47c0-.95,2.21-2.6,3.51-2.72,9.67-.89,18.17,9,16.19,19.28-0.73,3.78-2.77,7.47-4.9,10.74-1.5,2.31-1.91,4-.39,6.23q3.67,5.3,7.31,10.62c0.73,1.07,1.36,2.22,2,3.33Zm-16.43-47.45v26.49c6.05-6.42,10.33-12.58,7.74-20.64C624.81,513.3,621.12,512.07,617.77,509.65Z" transform="translate(-415.85 -133.59)"/>
  <path d="M643.3,241.28l10.75-25c4.33,1.34,6,3.2,4.36,7.48-5.78,15.19-11.24,30.5-17.07,45.67-0.64,1.66-3.28,4.08-4.26,3.78-2.88-.89-3.53-3.39-2.26-6.46,1.59-3.82,2.75-7.83,4.14-11.74,1-2.91-.12-5.21-0.91-8.08-2.59-9.41-3.67-19.23-5.48-29.77,4.58,0.77,6.17,2.26,6.61,5.35,0.89,6.23,2,12.42,3,18.63Z" transform="translate(-415.85 -133.59)"/>
  <path d="M676,510.37c-12.69,4.77-21,25.3-15.39,37.73,0.67,1.5,3.57,3.31,4.85,2.94a12.44,12.44,0,0,0,6.44-4.54c1.25-1.82,1-4.67,1.46-7.36-4.06-.2-8.55,2.05-10-3.49,6.82-4.67,15.92-4.63,17.8-1.23-1,3.5-1.75,5.9-2.33,8.34s-0.75,5-1.49,7.31a9.85,9.85,0,0,1-12.79,6.18c-7.71-2.75-12.62-10.93-11-21.18,1.16-7.42,3.84-14.72,6.71-21.72,1.12-2.72,4.33-5,7.11-6.53C670.89,504.92,674.07,506,676,510.37Z" transform="translate(-415.85 -133.59)"/>
  <path d="M588.91,511.39h-15L572,529.67c5.14,3,12.44-2.53,16.13,6l-15.61.87v14c5.53,3,12.76-4.11,17.88,4.06-6.68,1.9-12.84,3.68-18.83,1.52-2.22-.8-4.67-4.74-4.68-7.27-0.06-13.13.56-26.26,1.17-39.38,0.05-1.1,1.77-3,2.78-3a86.93,86.93,0,0,1,14,.34c1.67,0.19,3.15,2,4.71,3.1Z" transform="translate(-415.85 -133.59)"/>
  <path d="M690,451.56c1.34,0.39,2.15.59,2.93,0.87,28.73,10.25,54.09,25.61,74,49.09,0.86,1,2,2,2.39,3.16a18.93,18.93,0,0,1,.4,4.63c-1.36-.49-3.23-0.58-4-1.54-17.8-22.41-41-37.28-67.11-48-2.92-1.2-6-2-8.87-3.32a4,4,0,0,1-1.77-3C688,452.85,689.46,452.11,690,451.56Z" transform="translate(-415.85 -133.59)"/>
  <path d="M568.17,455.78a37.22,37.22,0,0,1-4.3,2.14c-20.93,7.45-40.17,17.91-56.76,32.77-6.05,5.42-11.22,11.82-17,17.59-1,1-2.91,1-4.4,1.39,0.19-1.45-.11-3.27.66-4.28a136.94,136.94,0,0,1,32.44-30.16,183.78,183.78,0,0,1,44.06-22.17C565.09,452.31,567.54,451.15,568.17,455.78Z" transform="translate(-415.85 -133.59)"/>
  <path d="M696.34,443.66c28.14,2,54.81,8.52,78.4,24.84a5,5,0,0,1,1.6,1.16c0.78,1.37,1.36,2.85,2,4.29-1.56-.07-3.36.33-4.64-0.31-2.66-1.32-5-3.29-7.54-4.83-22.52-13.54-47.26-19.06-73.21-20.17-1.16,0-2.45.27-3.46-.12a14.59,14.59,0,0,1-3.16-2.34c1-.84,1.92-2.21,3-2.39A42.84,42.84,0,0,1,696.34,443.66Z" transform="translate(-415.85 -133.59)"/>
  <path d="M557.93,444.58c2.33-.11,4.7-0.55,7-0.23,1.66,0.24,3.18,1.47,4.76,2.27-1.5.84-3,2.33-4.5,2.4-16,.74-31.79,2.89-47.14,7.77A130.07,130.07,0,0,0,482.66,474c-1.26.88-3.35,0.56-5.06,0.8,0.83-1.64,1.24-3.88,2.56-4.82,22.22-15.81,47.46-22.81,74.28-25.08,1.16-.1,2.33-0.13,3.49-0.19v-0.09Z" transform="translate(-415.85 -133.59)"/>
  <path d="M713.28,433.46c22.45,0.5,44.09,4.11,64.26,14.48a16.65,16.65,0,0,1,3.87,2.24c0.65,0.6,1.16,2.37.78,2.82a3.65,3.65,0,0,1-3.07,1.21c-2-.65-3.84-2-5.79-2.88-24.34-11.51-50.06-14.13-76.53-11.83-1.82.16-3.67,0.72-5.44,0.51-1.16-.14-2.19-1.32-3.29-2,0.95-.92,1.82-2.53,2.86-2.64C698.36,434.53,705.82,434,713.28,433.46Z" transform="translate(-415.85 -133.59)"/>
  <path d="M565.31,440.76c-24.92-2.88-48.19-1.58-70.79,6.3-5.63,2-10.9,4.93-16.47,7.12-1.26.5-3-.33-4.59-0.55,0.77-1.24,1.25-3,2.36-3.63,17.36-9.65,36.19-14.33,55.88-15,10.94-.4,21.93.48,32.88,1,1.11,0.06,2.14,1.79,3.2,2.74Z" transform="translate(-415.85 -133.59)"/>
  <path d="M730.84,513.3l-10-3.37,0.26-2.29c3.27-.55,6.53-1.2,9.81-1.63a44.3,44.3,0,0,1,8.92-.67c2.2,0.16,4.31,1.4,6.47,2.16L746,509.77,736,512.17l1.81,43.46c-5.13.17-5.41-3.66-5.62-6.74-0.65-9.61-.93-19.24-1.3-28.86C730.76,517.58,730.84,515.13,730.84,513.3Z" transform="translate(-415.85 -133.59)"/>
  <path d="M641.73,506.17c1.16,1.62,3.3,3.22,3.33,4.85,0.26,14.9.15,29.8,0.15,44.82-3.67.55-5.25-1.11-5.27-4-0.1-14.9,0-29.81,0-44.72Z" transform="translate(-415.85 -133.59)"/>
  <path d="M834.29,658c-4.45,0-7.2-2.89-7.21-7.61a8.11,8.11,0,0,1,7.81-8.07c4.1-.14,8.19,3.64,8.3,7.68C843.3,654.55,839.43,658,834.29,658Z" transform="translate(-415.85 -133.59)"/>
  <path d="M581.78,318.43c-3.59,0-6.61-3.26-6.65-7.24,0-4.69,4.05-9.42,8.29-9.57s6.9,2.82,6.81,7.33C590.15,313.74,586,318.4,581.78,318.43Z" transform="translate(-415.85 -133.59)"/>
  <path class="cls-1" d="M688.87,623.64c-1.55,8-4.11,14.75-9.22,20.28-4.56,4.93-10.24,8.06-16.95,5.73s-8.59-8.44-9-14.87c-0.67-10.9,1.67-21,9.08-30.25C666.78,617.75,675.93,623.06,688.87,623.64Z" transform="translate(-415.85 -133.59)"/>
  <path class="cls-1" d="M604.07,617.62c4.07-6.95,7.89-14.07,12.39-20.73,1.13-1.67,4.44-1.87,6.75-2.74,0.6,2.43,2,5,1.65,7.28C623.37,611.22,616,617.57,604.07,617.62Z" transform="translate(-415.85 -133.59)"/>
  <path class="cls-1" d="M689.26,617.68c-10.36.25-17.55-8.95-13.47-17.59,0.94-2,3.22-4.25,5.16-4.55,1.57-.25,4.05,1.91,5.3,3.61C689.62,603.75,690.64,611.54,689.26,617.68Z" transform="translate(-415.85 -133.59)"/>
  <path class="cls-1" d="M643.61,331.14c-0.72,10.59-.62,20.68-2.29,30.46a58.59,58.59,0,0,1-13.21,28.16c-4.63,5.45-9.31,4.43-11.16-2.61-1.64-6.22-2.93-12.8-2.72-19.17,0.42-12.27,1.91-24.51,3.26-36.73,0.16-1.44,2.12-3.59,3.49-3.8,2.56-.39,5.21-3.14,8.16.32,1.59,1.87,4.81,2.62,7.44,3.25C638.76,331.55,641.16,331.14,643.61,331.14Z" transform="translate(-415.85 -133.59)"/>
  <path class="cls-1" d="M689.67,362.68c3.82-6.64,7.36-13.48,11.64-19.81,1.2-1.77,4.61-2,7-3,0.49,2.58,1.92,5.42,1.31,7.71-2.48,9.29-8.37,15.18-18.35,16.15Z" transform="translate(-415.85 -133.59)"/>
  <path class="cls-1" d="M536.08,233.17L537.26,254h-8.91l6.47-21Z" transform="translate(-415.85 -133.59)"/>
  <path class="cls-1" d="M561.12,250.25V224.09c8.19-.56,12.18,5.66,8.77,14.28-1.77,4.48-4.91,8.41-7.44,12.59Z" transform="translate(-415.85 -133.59)"/>
  <path class="cls-1" d="M684.37,243.94c-0.89,4.07-2.14,10.18-3.62,16.23a7.18,7.18,0,0,1-2.32,3.74c-1.6,1.25-3.67,2.72-5.44,2.6-1.06-.07-2.47-2.91-2.78-4.67a64,64,0,0,1,3.34-34.73,5.89,5.89,0,0,1,4.69-3c1.51,0.13,3.74,2.18,4.09,3.74C683.34,232.36,683.57,237,684.37,243.94Z" transform="translate(-415.85 -133.59)"/>
  <path class="cls-1" d="M617.77,509.65c3.35,2.42,7,3.66,7.74,5.85,2.59,8.06-1.69,14.22-7.74,20.64V509.65Z" transform="translate(-415.85 -133.59)"/>
</svg>
